<svg width="624" height="729" viewBox="0 0 624 729" fill="none" xmlns="http://www.w3.org/2000/svg">
<path d="M417.116 12.315L416.457 12.866L417.251 13.0173L417.116 12.315ZM416.419 21.7516L414.492 23.3397L412.332 24.3281C412.699 23.4963 413.061 22.6591 413.428 21.8218L414.924 21.7894L416.419 21.7516ZM444.95 0L441.089 3.17618L441.057 6.71964L440.236 9.4529L432.531 15.8214L433.455 14.8005L437.315 11.6244L438.989 9.80942L438.384 2.76565L436.457 4.35367L433.816 2.8034L430.242 2.06878L425.858 0.199775L423.93 1.7878L422.818 4.2185L421.171 5.19619L417.311 8.37237L416.533 11.1164L414.6 12.7044L412.856 12.5694L409.001 15.751L411.501 16.8421L417.116 12.3156L418.385 11.2731L420.664 11.084L420.95 12.0239L419.989 14.2926L418.337 13.2338L417.251 13.0178L417.273 13.1528L411.49 17.9224L412.662 22.7245L411.922 25.4632L416.544 28.0019L419.649 28.0991L423.504 24.9229L424.411 22.2545L426.339 20.6665L429.486 22.6327L428.066 24.7447L430.971 28.2071L434.826 25.0255L438.098 25.3766L438.984 22.7515L440.474 20.7314L441.576 18.4897L439.702 19.9319L440.074 17.7389L439.853 15.0165L441.721 14.6708L445.582 11.4946L445.074 9.69043L447.002 8.10241L448.983 6.91945L451.548 6.87084L455.403 3.68926L451.494 0.691329L444.95 0ZM296.858 86.0745L294.79 87.3115L292.679 88.6457L291.226 89.7692L294.86 87.4735L296.858 86.0745ZM317.149 79.3171L316.566 79.9221L291.227 95.9489L289.785 97.7423L289.353 100.54L287.901 102.204C287.701 102.35 287.496 102.49 287.296 102.636H287.29C284.008 104.645 282.129 105.926 281.654 106.487L281.513 106.817C279.391 108.367 277.28 109.923 275.18 111.484C274.964 111.452 274.742 111.425 274.505 111.397L276.146 110.355C277.264 109.204 278.079 107.789 278.603 106.104C278.97 105.359 280.973 103.922 284.601 101.799C285.368 100.335 286.362 99.071 287.582 98.0177L317.149 79.3171ZM446.479 140.566C445.08 142.003 443.86 143.272 442.813 144.374L442.003 145.481C443.131 144.288 444.265 143.099 445.404 141.922L446.484 140.566L446.479 140.566ZM286.375 167.888L280.754 173.473L278.805 176.012L283.178 171.663L284.776 169.778L286.375 167.888ZM587.204 193.945L584.725 196.446L584.175 197.246L585.935 195.474L586.572 194.707L587.204 193.945ZM389.945 207.471L388.099 213.045L386.112 213.499C387.381 211.484 388.661 209.475 389.94 207.471L389.945 207.471ZM491.642 284.234C490.745 285.659 489.855 287.08 488.964 288.501L486.863 290.699L484.758 292.892L485.595 290.515L486.437 289.44C487.771 287.966 489.11 286.502 490.438 285.049C490.837 284.779 491.237 284.509 491.636 284.233L491.642 284.234ZM593.446 299.433C592.884 300.136 592.339 300.816 591.815 301.486H591.81L590.109 302.258C591.2 301.329 592.312 300.389 593.441 299.433H593.446ZM480.131 303.517C470.779 313.526 465.574 319.733 464.515 322.137L478.224 307.935L480.33 305.337L480.136 303.517L480.131 303.517ZM210.982 337.195L208.31 341.771L210.329 341.317L211.636 339.394L210.982 337.195ZM303.155 337.838L297.686 345.995L300.655 342.338L301.902 340.091L303.155 337.838ZM446.838 341.873L445.229 343.294L443.253 345.595L441.271 347.896L442.087 344.466L446.838 341.873ZM548.848 367.115L548.389 368.023C547.153 369.124 545.922 370.232 544.691 371.344L542.844 373.008L544.07 371.193H544.064C545.555 369.918 547.148 368.557 548.843 367.115L548.848 367.115ZM512.035 405.111L510.172 406.304L508.785 407.676L509.346 406.844L510.005 406.185L510.291 406.034L512.035 405.111ZM36.7961 423.184L33.9776 430.498L32.5359 436.704L33.6644 436.418L37.3737 426.798L36.7961 423.184ZM430.871 436.467C427.777 440.437 424.715 444.434 421.681 448.453L421.298 449.252C424.192 445.406 427.21 441.463 430.347 437.423L430.876 436.467H430.871ZM426.826 450.23L426.092 451.802L423.835 454.735L424.208 453.698C425.077 452.536 425.952 451.38 426.821 450.23H426.826ZM319.585 509.88L313.818 518.296L313.332 519.311L318.985 511.063L319.585 509.88ZM223.584 533.167L219.88 538.098L218.547 540.227L217.213 542.36L220.917 537.429C221.808 536.008 222.699 534.587 223.584 533.167L223.584 533.167ZM315.735 506.553L287.745 547.471L314.347 508.32L315.735 506.553ZM491.237 93.3136C490.622 93.3136 490.119 93.4108 489.725 93.6107C488.424 94.2049 487.166 95.1448 485.946 96.4304L476.513 99.1311C470.325 104.711 464.192 110.366 458.113 116.093C457.184 117.4 456.612 118.901 456.39 120.603L455.165 122.65C453.961 123.806 452.762 124.968 451.574 126.129C450.397 127.301 449.706 128.727 449.501 130.412C444.296 135.533 439.258 140.74 434.398 146.04L435.208 144.846C438.367 141.416 441.898 137.699 445.807 133.681C446.542 132.406 446.66 130.775 446.164 128.798L446.92 127.685L453.032 121.452L453.717 119.032L453.167 118.54L454.031 117.271L464.662 104.523L452.405 114.435C444.263 119.874 436.872 124.887 430.236 129.484L422.585 129.073L418.362 133.071C414.831 135.253 410.49 136.603 405.345 137.122L399.859 140.201L379.859 167.452C377.224 169.623 374.514 171.887 371.728 174.236L370.416 171.633L362.986 181.701H362.981C361.021 183.397 359.023 185.126 356.993 186.898L353.537 187.438L351.297 185.579L346.049 188.907L341.961 189.706L341.313 188.394L334.721 188.118L330.871 191.883L324.694 193.093C324.683 193.088 324.672 193.082 324.656 193.082C324.176 193.082 320.861 197.279 314.7 205.679L310.289 206.262L304.922 209.147C302.082 212.226 300.165 215.785 299.161 219.831C295.818 222.386 293.281 225.578 291.548 229.408L286.683 232.844L284.356 238.737L287.952 237.132L291.218 232.147L294.101 233.303L289.696 237.613C289.771 239.612 289.75 241.535 289.636 243.382V243.387L286.996 246.958L284.717 248.638L283.006 250.609L281.3 252.581L286.861 247.142L286.305 247.898L260.134 273.48L262.471 275.484L260.63 278.919L250.053 289.258L247.116 290.187L237.559 290.171L230.227 292.024L223.305 302.233L224.627 307.413L220.594 311.356L219.563 311.604L218.035 313.862L215.74 316.104L216.312 316.401L209.174 326.923L209.326 333.832L202.404 344.041L198.91 343.857L188.527 359.171L193.743 361.412L197.533 356.594L210.978 337.116L210.999 337.197L211.491 336.354L215.616 332.708L219.844 329.748L221.625 333.524L220.551 337.321C220.2 337.905 219.854 338.493 219.504 339.082L216.404 335.63L212.943 340.735L210.346 341.318L197.804 359.813L198.122 366.863L200.363 373.355V373.361C198.138 377.574 195.908 381.884 193.673 386.281L192.663 385.401C194.37 381.668 196.13 377.958 197.944 374.263L187.68 371.362L184.613 376.256L176.584 392.926L170.461 396.172L166.374 400.758L167.232 407.31L164.554 412.863L163.604 419.032L160.246 423.969L161.86 428.9L164.538 423.348L167.832 420.112L165.154 425.67L167.945 433.06L168.409 437.932L165.056 437.349L151.671 465.135L156.099 465.691L146.483 485.666L142.676 490.484L137.05 494.201L129.021 510.876L131.618 511.443L139.107 511.47C123.789 553.084 118.238 575.101 122.461 577.531L122.931 577.104C131.629 567.533 142.984 552.922 156.99 533.265C176.936 503.849 194.732 477.828 210.374 455.201L214.947 454.056C215.535 453.154 216.588 451.182 218.1 448.147L234.027 424.385C234.778 422.413 235.453 420.409 236.052 418.367C241.462 410.691 246.5 403.588 251.175 397.069L255.71 396.378L256.92 402.508L250.047 412.755L252.314 417.995L259.836 418.168L273.577 397.68L278.074 393.586C281.892 391.636 285.234 389.248 288.096 386.429L288.868 380.33C290.374 376.549 292.399 373.011 294.953 369.716L296.864 363.85L301.054 359.582L302.107 353.365L299.818 354.321L296.384 359.442L292.447 362.505L295.887 357.379L296.821 351.102L295.568 343.815L297.188 342.141L299.92 342.422L320.529 311.682C319.66 310.261 319.007 308.705 318.558 307.02L328.866 291.653L333.272 287.429L333.979 284.026C336.581 280.936 340.069 278.603 344.443 277.025L350.469 268.042H350.463C352.85 265.801 355.242 263.349 357.644 260.691L357.785 257.126L358.184 256.537L357.812 256.472L357.898 254.263L365.225 244.335L367.719 239.063L371.764 234.504L372.746 229.912L377.73 223.279L386.547 214.664L388.55 216.889L410.601 195.337L403.625 194.348L398.965 198.308L390.596 206.486C391.104 205.697 391.617 204.903 392.124 204.114L397.67 196.73L400.753 193.722L400.79 192.577L411.54 178.258H411.546C411.33 179.635 410.919 180.948 410.304 182.19C408.387 184.858 406.503 187.548 404.651 190.265L407.334 191.146L409.581 190.752L420.989 175.336C422.123 174.261 423.446 173.456 424.958 172.921C425.827 171.447 426.956 170.388 428.349 169.751L429.855 167.892C430.109 166.429 430.638 165.024 431.448 163.674L440.594 152.903C441.075 151.401 441.847 150.045 442.927 148.846L441.782 149.262C438.899 152.238 437.398 154.021 437.284 154.604L435.897 154.772C436.982 153.556 438.073 152.347 439.169 151.153C439.73 150.586 440.432 148.279 441.274 144.244L442.468 142.175L442.338 143.931L443.072 144.023C448.143 138.675 454.552 132.301 462.305 124.901L462.791 123.918L460.41 124.523L461.732 123.075C465.339 119.656 468.968 116.269 472.628 112.904L474.712 111.71L474.685 111.013L476.527 109.334L478.443 107.854C480.263 107.8 481.775 107.211 482.99 106.076L492.255 97.7308L495.975 94.3872C493.993 93.6742 492.411 93.3176 491.234 93.3176L491.237 93.3136ZM396.517 35.8356L395.874 36.0463C391.576 38.3041 387.306 40.5782 383.072 42.8793L374.299 42.566L371.966 43.1386L352.96 55.1572L350.973 56.6156L349.834 58.8681L339.284 65.5606L337.011 66.3492L334.484 66.2574L334.041 65.2419L335.245 63.092L343.69 57.7498L341.654 55.7566L339.386 55.2489L324.728 64.3992L322.552 65.5174L320.02 65.4255C318.67 66.5329 317.196 67.1864 315.608 67.3864L313.497 68.726C312.914 70.1952 311.915 71.4105 310.495 72.3558L304.157 76.3584L302.591 78.1625C300.971 78.5299 299.599 79.3455 298.466 80.6094L296.911 82.4621L297.078 83.0131C300.733 80.8092 302.715 79.4481 303.012 78.9349L304.146 79.2914L299.923 81.9652C299.432 82.6134 298.255 84.828 296.387 88.62H295.41L295.896 86.8969L272.667 101.589C274.136 101.616 274.767 101.892 274.573 102.416L261.901 110.426L259.622 111.247L259.396 112.014L257.284 113.349L254.995 114.121L252.403 114.137L237.62 123.487L240.525 125.016L241.103 125.119V125.124C237.512 126.458 234.079 127.922 230.796 129.516L209.819 165.842C204.29 170.985 198.869 176.192 193.546 181.458L193.497 181.312L193.206 181.793C185.668 189.263 178.336 196.863 171.198 204.593L169.53 203.799L165.572 209.244L130.071 222.91L113.166 252.187L112.939 269.158L105.952 270.6L84.8194 307.196C83.8259 310.853 83.0485 314.364 82.4923 317.724C78.7667 320.117 72.9246 323.774 64.9711 328.684L61.2996 333.513L52.4284 356.534L51.9155 362.541L52.882 365.263L36.8025 393.103L41.0625 392.066L34.0272 410.329L35.9224 416.541L24.8376 445.325C23.4716 445.633 22.0893 446.438 20.6909 447.751L7.38693 482.289L10.0866 482.667L15.162 478.827L24.0278 455.8L23.7578 449.626L27.9314 446.212L36.8026 423.186L38.4171 418.989L41.2085 414.905L44.3023 412.631L46.5215 406.878L47.8605 410.638L48.6435 416.834L46.4243 422.586L44.3617 423.597L42.4827 418.611L35.8307 435.879L33.671 436.42L17.4242 478.606L16.9221 485.099L20.0915 491.003L21.3874 497.48C22.4942 494.59 23.9737 490.749 25.8202 485.963L27.4454 481.977H27.4508C25.5502 487.881 23.682 493.823 21.8517 499.812L21.3873 497.484C20.2805 500.369 19.5408 502.313 19.1682 503.318L20.356 504.755H20.3506C12.9859 529.198 6.20484 554.326 0 580.135L45.5653 510.74L133.714 368.006L135.545 365.392L136.959 366.553L145.328 364.619L166.461 328.023L175.003 324.485L185.202 311.44L184.533 302.7L192.988 288.062L195.245 280.192L195.936 279.198L200.358 273.71C200.407 273.364 200.45 273.024 200.493 272.694L217.868 247.901L240.853 225.889L247.343 224.83C250.712 223.096 253.93 220.687 256.997 217.614L258.244 211.45C272.602 197.412 280.306 188.207 281.365 183.832H281.36L277.672 185.571L269.292 193.587L270.167 190.832L274.54 186.484C275.42 182.589 276.052 178.522 276.441 174.292C277.197 173.423 277.964 172.542 278.736 171.656L278.989 171.376L280.064 173.963L315.056 139.177L310.176 139.036L312.729 135.515L330.229 118.122L334.84 115.102L336.308 112.077L341.459 108.896L347.841 107.361L369.708 85.6195L360.853 82.4541L383.38 57.9853C388.174 52.3407 392.186 47.1929 395.415 42.5476C396.575 40.9542 396.943 38.7179 396.516 35.8387L396.517 35.8356ZM112.219 598.543L112.873 600.104L113.504 598.614L112.219 598.543ZM608.316 277.053L585.136 287.597C565.462 304.347 549.733 318.051 537.968 328.714L534.075 334.245L515.383 351.746C513.914 351.886 512.543 352.318 511.263 353.048C508.72 355.268 505.777 357.963 502.43 361.129L500.799 362.085L505.934 354.825L523.741 337.562C523.066 337.454 522.402 337.4 521.76 337.4C519.891 337.4 518.164 337.848 516.576 338.75C508.92 345.443 497.619 356.418 482.674 371.683L477.048 375.34L468.177 383.578L435.997 423.517L430.798 432.538L440.219 420.849L441.04 419.023C441.683 417.981 443.265 416.663 445.792 415.069L436.386 426.85L432.05 436.125L430.69 437.815L429.097 440.57L429.955 438.215L428.875 439.425C419.637 451.4 410.663 463.543 401.95 475.854L389.477 493.852L394.499 489.396L393.278 491.222L369.175 525.965C368.387 527.072 368.063 527.623 368.203 527.623C368.311 527.623 368.711 527.272 369.407 526.575L363.889 534.872L357.388 541.338L342.394 564.43L334.251 577.032C336.341 576.427 338.144 575.66 339.672 574.73L337.081 578.728L328.939 591.324C331.174 590.681 333.085 589.849 334.673 588.834H334.678L330.159 595.824C331.595 595.408 332.896 594.916 334.063 594.349H334.068L332.378 596.785C331.59 597.892 331.266 598.443 331.401 598.443C331.509 598.443 331.914 598.092 332.605 597.39L332.61 597.396L327.092 605.692L320.586 612.153L305.591 635.244L297.449 647.846C300.705 646.912 303.275 645.578 305.159 643.844C306.293 643.476 309.063 639.755 313.464 632.684L326.503 620.449C332.917 610.618 338.911 601.527 344.489 593.166L340.336 599.562L332.194 612.169C335.445 611.229 338.015 609.895 339.905 608.161C341.038 607.794 343.808 604.078 348.209 597.007C352.544 592.923 356.891 588.845 361.243 584.772C373.985 565.246 385.07 548.624 394.508 534.905L395.96 530.978L400.69 527.192H400.695C400.463 528.191 400.431 529.018 400.598 529.671C401.953 527.732 403.233 525.906 404.426 524.205L413.864 516.648C421.278 507.492 427.709 499.725 433.156 493.335H433.151L448.61 480.966C458.868 468.299 467.242 458.279 473.744 450.912L476.638 445.564H476.633C478.42 443.798 480.24 442.015 482.081 440.216V440.222L482.135 440.184C482.162 440.152 482.194 440.119 482.226 440.081H482.221C482.664 439.655 483.107 439.222 483.549 438.796L483.83 438.331C489.705 431.936 496.033 425.308 502.814 418.442H502.808C507.165 414.44 511.55 410.464 515.972 406.521L517.538 405.187H517.543C515.669 407.747 514.833 409.027 515.032 409.027C515.14 409.027 515.572 408.633 516.323 407.833L554.663 374.246L546.802 377.963C537.974 385.519 529.221 393.142 520.534 400.827L518.023 404.484L516.074 405.267C516.808 404.549 517.548 403.831 518.293 403.112L520.064 400.201H520.058C527.542 393.6 536.408 385.865 546.655 377.007C546.169 377.007 547.239 375.203 549.868 371.594C550.149 371.346 550.43 371.092 550.716 370.838L552.282 369.504C550.413 372.064 549.576 373.35 549.771 373.35C549.879 373.35 550.311 372.95 551.061 372.156L589.402 338.563L581.546 342.285C572.718 349.842 563.959 357.464 555.272 365.144L552.761 368.801L551.59 369.271C552.869 367.57 554.392 365.587 556.158 363.324C556.249 363.243 556.341 363.162 556.433 363.081H556.428L561.881 358.452L562.918 357.393H562.912C568.473 352.531 574.634 347.173 581.399 341.323C580.622 341.323 583.797 336.748 590.929 327.609H590.924L573.835 342.117C572.523 342.727 571.211 343.343 569.899 343.953L568.053 344.823L571.379 341.906H571.373C578.457 335.797 586.907 328.586 596.718 320.272C594.569 322.973 592.636 325.42 590.935 327.602L596.626 322.773L598.591 320.753L599.58 318.9L599.018 318.322L606.259 312.191L590.697 319.268C592.177 317.037 594.979 313.283 599.099 308H599.093L582.005 322.508C581.297 322.838 580.585 323.173 579.877 323.502C579.991 323.313 580.126 323.103 580.271 322.876H580.266L586.146 317.722L583.284 319.078C589.548 313.698 596.75 307.562 604.887 300.659L604.893 300.665C602.738 303.365 600.811 305.807 599.11 307.989L604.795 303.166L606.766 301.145L607.754 299.293L607.193 298.715L614.433 292.579L600.708 298.823L604.223 295.847L595.357 299.882L596.324 298.061L595.768 297.483L603.003 291.352L588.917 297.759C590.088 296.214 591.444 294.448 592.988 292.471H592.982L584.257 299.882L579.824 301.896C576.941 304.354 574.139 306.742 571.423 309.07H571.417L569.997 309.734C577.735 303.042 587.324 294.837 598.776 285.135C596.627 287.836 594.694 290.278 592.993 292.46L598.678 287.636L600.649 285.616L601.637 283.763L601.076 283.185L608.316 277.053ZM214.214 641.48L210.894 646.33L209.976 648.81L210.634 649.966L212.33 647.486L214.214 641.48ZM111.907 595.992C110.46 595.992 108.608 596.251 106.335 596.775L104.073 598.282L99.9636 607.395L100.358 610.123L98.3059 614.682L95.9896 616.156L93.7435 614.557C94.3968 613.029 95.0663 611.505 95.7574 609.988L91.1301 609.318L88.0524 616.113C86.6648 617.193 85.3095 618.295 83.9921 619.408C84.1271 621.115 83.9219 622.762 83.3766 624.345C82.5991 625.879 82.0051 627.381 81.6001 628.85L81.5785 631.448C82.5396 630.152 83.5222 628.936 84.5265 627.791H84.5319L83.5061 630.065L84.7803 633.069L84.8505 634.592L83.5115 634.965L79.4025 644.083C79.6077 644.979 79.8399 645.849 80.1044 646.697L78.0526 651.256L76.7892 653.109L76.314 654.886L73.6846 656.231L70.6016 663.064L72.8369 663.464L76.3573 662.891L78.2471 661.141L81.654 660.298L83.1604 658.311L86.2434 651.478L86.7942 649.052L85.6765 646.135L86.7024 643.856L86.1787 641.112L92.3393 627.44L92.8846 626.717L87.7499 638.109L87.1884 640.48L89.1699 643.629L88.144 645.908L89.1267 648.804C90.0932 647.88 90.8761 646.562 91.4646 644.844L93.5326 643.607L95.1524 643.661L98.0302 642.5C100.476 642.041 102.577 641.376 104.331 640.501L106.383 635.942L106.977 633.539L106.043 631.076L108.186 629.812L111.27 622.979L110.713 620.262L113.796 613.423L115.087 613.515L118.165 606.677L118.634 604.748L115.832 605.926L113.78 610.479L113.289 612.629L111.853 614.574C111.513 615.47 111.172 616.227 110.821 616.859L110.902 616.68L110.476 615.805L110.417 615.94L109.758 618.344C110.12 617.982 110.471 617.491 110.816 616.864V616.869L109.877 618.96L108.095 619.786L107.058 622.044L105.897 620.132L106.529 617.734L107.987 619.338L109.034 617.221L110.06 614.941L110.476 615.805L115.497 604.473L113.392 601.34L112.868 600.103L112.511 600.957L111.486 603.236L108.878 604.527L111.594 598.509L112.214 598.542L112.106 598.293L112.711 596.025C112.457 596.003 112.187 595.992 111.907 595.992L111.907 595.992ZM156.484 661.525L153.876 665.884L153.984 667.153L156.29 663.302L156.484 661.525ZM623.996 141.173C591.373 158.356 562.039 175.159 536.003 191.597L559.96 161.316C557.617 160.7 555.284 160.398 552.957 160.398C550.976 160.398 549 160.619 547.029 161.062L542.045 163.644C539.68 166.756 536.975 169.651 533.935 172.335L517.014 179.422L512.576 183.425L474.305 231.796C474.18 232.822 474.062 233.848 473.943 234.875H473.937C471.151 237.057 468.425 239.234 465.763 241.405L466.049 237.489L463.23 237.7L450.294 254.05H450.288C447.286 256.524 444.317 259.003 441.368 261.483H441.363L439.592 262.471L437.767 260.014C437.708 259.997 437.648 259.987 437.584 259.987C436.606 259.987 434.582 261.942 431.515 265.847L403.309 277.65L398.039 280.524L375.082 309.546L371.68 314.548C371.513 318.696 370.822 322.645 369.612 326.388L366.545 325.648L361.751 329.872L327.481 373.858L327.486 374.901H327.481C318.291 385.99 309.588 397.156 301.369 408.385C300.343 409.93 299.312 411.486 298.281 413.058C298.146 412.809 298.038 412.502 297.951 412.14L263.509 455.671C265.534 455.6 268.698 454.704 273.017 452.986C271.97 454.704 270.922 456.432 269.869 458.166L269 458.917L254.173 478.633L249.573 482.56C245.583 484.164 242.105 486.309 239.141 488.988L236.107 494.281L235.156 500.299L227.743 510.162L225.033 515.186L221.14 519.907L219.779 526.021L222.317 524.919C224.795 521.322 227.262 518.346 229.719 515.985C229.465 517.784 227.9 520.658 225.027 524.612C225.346 528.333 225.524 531.99 225.573 535.582C225.27 536.139 224.968 536.695 224.666 537.257L223.623 535.831L220.497 538.234L194.549 572.745L199.743 572.248L196.919 576.64L176.698 603.276L169.717 604.842L151.187 629.489L161.888 631.677L167.352 629.268L171.564 624.876L174.371 624.255L168.135 634.675C167.714 636.236 167.676 637.916 168.027 639.714L166.445 639.812L164.852 641.859L157.153 654.726L156.062 657.075L156.213 659.447L149.794 670.169L148.73 671.368L148.131 670.59L139.146 685.596C139.292 685.683 139.476 685.726 139.681 685.726C140.377 685.726 141.398 685.261 142.742 684.327L156.478 661.533L157.725 659.458L159.145 658.87L160.436 657.46L161.715 655.315L162.012 657.611L161.537 660.004L160.252 662.149L159.404 662.429L159.221 659.842L154.086 668.42L153.978 667.161L143.449 684.749L143.131 687.374L143.73 689.848L143.698 692.603L146.716 687.558L148.141 685.554L150.636 684.609L143.897 695.866L143.493 696.049C143.579 695.72 143.638 695.385 143.671 695.056L143.698 692.603L142.866 693.992L142.353 696.573L143.493 696.05C143.217 697.141 142.661 698.232 141.819 699.334L142.915 699.528L147.294 697.864C140.215 716.371 137.974 726.747 140.577 729L141.354 728.384C156.084 714.421 176.288 690.702 201.957 657.218L214.532 640.457L214.208 641.488L218.965 634.542L224.067 627.741L227.442 625.435L212.323 647.495L206.675 655.743L221.458 645.642L223.121 644.032L247.138 608.986C247.915 608.36 248.801 606.199 249.778 602.51L262.493 583.961C262.234 583.377 264.567 581.551 269.491 578.467L267.002 584.89L257.321 599.35C257.596 599.501 257.953 599.576 258.385 599.576C259.486 599.576 261.09 599.08 263.195 598.086L282.838 569.77C284.053 568.895 285.279 568.041 286.521 567.209L292.563 559.734C294.836 556.963 296.142 554.192 296.488 551.415L311.498 529.095C311.319 528.296 312.356 526.168 314.602 522.711L313.171 523.818L307.54 532.044L306.751 534.027L304.921 535.399L304.694 535.069L310.153 526.789L313.382 515.786L314.726 513.874L313.7 518.243L314.964 516.515L341.804 477.343L338.51 479.692L338.483 479.158L344.903 469.786L370.506 454.391L374.928 450.729C384.307 437.5 393.826 424.483 403.491 411.67L408.177 395.39C408.194 395.584 408.345 395.682 408.636 395.682C409.522 395.682 411.703 394.758 415.175 392.911C426.217 378.635 440.276 361.679 457.361 342.044C460.519 338.36 461.804 334.898 461.211 331.657C470.53 321.113 482.884 307.831 498.267 291.81H498.337C499.293 291.81 499.492 293.02 498.926 295.445C511.468 282.373 527.224 266.601 546.197 248.121L547.363 245.798H547.357C543.686 246.9 540.036 248.061 536.402 249.282L506.144 279.412C502.985 282.172 501.057 285.505 500.372 289.405L495.588 289.962L478.234 307.944L476.333 310.283C466.744 320.675 459.968 328.146 455.994 332.694L453.807 331.106L450.287 334.314L446.297 338.873L442.334 343.449L443.278 339.559H443.273C447.614 334.277 451.928 329.096 456.215 324.019V324.025L455.281 327.99C463.348 318.936 471.55 309.985 479.886 301.138L480.145 303.52C491.965 290.87 510.409 272.143 535.478 247.344C537.918 243.703 538.987 240.462 538.69 237.626L546.984 229.254L547.653 226.753C547.486 226.639 549.775 224.236 554.521 219.542L556.859 218.661L559.084 218.726L558.69 221.367L553.414 226.688L555.844 228.627L558.106 228.368L566.902 219.493L568.948 218.164C570.633 217.764 572.139 217.105 573.473 216.198L575.228 214.421L575.665 211.898C577.587 210.148 580.357 207.166 583.969 202.948L584.979 200.674L583.759 201.122C582.484 202.321 581.415 203.488 580.546 204.611L580.152 203.861L581.912 202.083C582.619 200.593 583.003 198.88 583.062 196.957L584.018 194.645L584.012 197.092L598.083 182.891L598.683 181.665L597.036 181.508L608.24 170.197C609.714 169.462 611.263 168.814 612.894 168.258L621.684 159.383C621.884 159.253 620.453 158.81 617.392 158.054L615.075 158.697L613.326 160.458C611.549 160.744 609.746 160.998 607.916 161.219L605.578 162.143L593.267 174.572C593.024 176.344 592.636 178.018 592.101 179.607C590.908 180.779 589.752 181.978 588.64 183.193L588.208 185.813L568.862 205.34L569.3 204.616L585.13 188.637L585.94 186.363L585.481 183.22L588.996 179.671L590.211 177.57L624 141.174L623.996 141.173Z" fill="#FF288F"/>
</svg>
