<svg width="162" height="36" viewBox="0 0 162 36" fill="none" xmlns="http://www.w3.org/2000/svg">
<path d="M79.547 0.608149L79.5144 0.635358L79.5536 0.642827L79.547 0.608149ZM79.5126 1.07415L79.4174 1.15257L79.3108 1.20139C79.3289 1.16031 79.3468 1.11897 79.3649 1.07762L79.4387 1.07602L79.5126 1.07415ZM80.9211 0L80.7305 0.156848L80.7289 0.331833L80.6884 0.466809L80.308 0.781305L80.3536 0.73089L80.5442 0.574041L80.6268 0.484415L80.597 0.136575L80.5018 0.214996L80.3715 0.138439L80.195 0.102162L79.9785 0.00986542L79.8834 0.0882861L79.8285 0.208321L79.7472 0.256602L79.5566 0.41345L79.5182 0.548958L79.4228 0.627379L79.3367 0.62071L79.1463 0.777825L79.2698 0.831707L79.547 0.608177L79.6096 0.556695L79.7221 0.547359L79.7362 0.593773L79.6888 0.705804L79.6072 0.653522L79.5536 0.642852L79.5547 0.649521L79.2692 0.885056L79.3271 1.1222L79.2906 1.25744L79.5187 1.38281L79.672 1.38761L79.8623 1.23076L79.9071 1.09899L80.0023 1.02057L80.1577 1.11766L80.0876 1.22196L80.231 1.39294L80.4213 1.23583L80.5829 1.25316L80.6266 1.12353L80.7001 1.02377L80.7545 0.913069L80.662 0.984292L80.6804 0.875996L80.6695 0.741553L80.7617 0.724481L80.9523 0.567633L80.9272 0.478539L81.0224 0.400118L81.1202 0.341701L81.2469 0.3393L81.4372 0.182186L81.2442 0.0341397L80.9211 0ZM73.6099 4.25059L73.5078 4.31167L73.4036 4.37756L73.3319 4.43304L73.5113 4.31967L73.6099 4.25059ZM74.6117 3.91689L74.5829 3.94676L73.3319 4.73821L73.2607 4.82677L73.2394 4.96494L73.1677 5.0471C73.1578 5.0543 73.1477 5.06124 73.1379 5.06844H73.1376C72.9755 5.16767 72.8828 5.23089 72.8593 5.25863L72.8524 5.2749C72.7476 5.35146 72.6434 5.42828 72.5397 5.50537C72.529 5.50377 72.5181 5.50244 72.5064 5.5011L72.5874 5.44962C72.6426 5.3928 72.6828 5.32291 72.7087 5.23969C72.7268 5.20288 72.8257 5.13193 73.0048 5.0271C73.0427 4.95481 73.0917 4.89239 73.152 4.84037L74.6117 3.91689ZM80.9966 6.94152C80.9275 7.01248 80.8673 7.07516 80.8156 7.12958L80.7756 7.18426C80.8313 7.12531 80.8873 7.06662 80.9435 7.00847L80.9968 6.94152L80.9966 6.94152ZM73.0924 8.29073L72.8149 8.56655L72.7187 8.69192L72.9346 8.47719L73.0135 8.3841L73.0924 8.29073ZM87.9441 9.57753L87.8217 9.70104L87.7945 9.74051L87.8814 9.65302L87.9129 9.61515L87.9441 9.57753ZM78.2056 10.2455L78.1144 10.5207L78.0163 10.5431C78.079 10.4437 78.1421 10.3444 78.2053 10.2455L78.2056 10.2455ZM83.2262 14.0362C83.182 14.1066 83.138 14.1768 83.094 14.2469L82.9903 14.3555L82.8864 14.4638L82.9277 14.3464L82.9693 14.2933C83.0351 14.2205 83.1012 14.1482 83.1668 14.0765C83.1865 14.0631 83.2063 14.0498 83.226 14.0362L83.2262 14.0362ZM88.2522 14.7868C88.2245 14.8215 88.1976 14.8551 88.1717 14.8882H88.1715L88.0875 14.9263C88.1413 14.8804 88.1963 14.834 88.252 14.7868H88.2522ZM82.6579 14.9885C82.1963 15.4828 81.9393 15.7893 81.887 15.908L82.5638 15.2066L82.6678 15.0783L82.6582 14.9884L82.6579 14.9885ZM69.3703 16.6516L69.2384 16.8775L69.3381 16.8551L69.4026 16.7602L69.3703 16.6516ZM73.9208 16.6833L73.6508 17.0861L73.7974 16.9055L73.859 16.7946L73.9208 16.6833ZM81.0143 16.8826L80.9349 16.9528L80.8373 17.0664L80.7395 17.18L80.7797 17.0106L81.0143 16.8826ZM86.0505 18.1291L86.0278 18.1739C85.9668 18.2283 85.906 18.283 85.8452 18.338L85.7541 18.4201L85.8146 18.3305H85.8143C85.8879 18.2675 85.9665 18.2003 86.0502 18.1291L86.0505 18.1291ZM84.2331 20.0054L84.1411 20.0644L84.0726 20.1321L84.1003 20.0911L84.1328 20.0585L84.1469 20.051L84.2331 20.0054ZM60.7709 20.8979L60.6317 21.2591L60.5606 21.5656L60.6163 21.5515L60.7994 21.0764L60.7709 20.8979ZM80.226 21.5539C80.0733 21.7499 79.9221 21.9473 79.7723 22.1458L79.7534 22.1853C79.8963 21.9953 80.0453 21.8006 80.2002 21.6011L80.2263 21.5539H80.226ZM80.0264 22.2335L79.9901 22.3112L79.8787 22.456L79.8971 22.4048C79.94 22.3474 79.9832 22.2903 80.0261 22.2335H80.0264ZM74.7319 25.1792L74.4472 25.5948L74.4232 25.645L74.7023 25.2376L74.7319 25.1792ZM69.9925 26.3292L69.8096 26.5727L69.7438 26.6778L69.6779 26.7832L69.8608 26.5396C69.9048 26.4695 69.9488 26.3993 69.9925 26.3292L69.9925 26.3292ZM74.5419 25.0149L73.16 27.0355L74.4734 25.1022L74.5419 25.0149ZM83.2063 4.60807C83.1759 4.60807 83.1511 4.61287 83.1316 4.62274C83.0674 4.65208 83.0053 4.6985 82.945 4.76199L82.4793 4.89536C82.1739 5.17091 81.8711 5.45019 81.5709 5.73296C81.5251 5.79752 81.4968 5.87167 81.4859 5.9557L81.4254 6.05679C81.366 6.11388 81.3068 6.17123 81.2481 6.22858C81.19 6.28646 81.1559 6.35688 81.1458 6.44011C80.8888 6.69298 80.6401 6.95013 80.4002 7.21182L80.4402 7.15287C80.5961 6.98348 80.7704 6.79996 80.9634 6.60151C80.9997 6.53856 81.0055 6.45799 80.981 6.36037L81.0183 6.30542L81.3201 5.9976L81.3539 5.8781L81.3268 5.85382L81.3694 5.79114L81.8943 5.16161L81.2892 5.65109C80.8872 5.91971 80.5223 6.16725 80.1947 6.39426L79.817 6.37399L79.6085 6.57138C79.4342 6.67914 79.2199 6.74583 78.9658 6.77144L78.695 6.92349L77.7076 8.26922C77.5776 8.37645 77.4437 8.48821 77.3062 8.60425L77.2414 8.47567L76.8746 8.97288H76.8744C76.7776 9.05664 76.679 9.142 76.5787 9.22949L76.4081 9.25617L76.2975 9.1644L76.0384 9.32872L75.8366 9.36819L75.8047 9.30337L75.4792 9.28977L75.2891 9.4757L74.9842 9.53545C74.9836 9.53518 74.9831 9.53491 74.9823 9.53491C74.9586 9.53491 74.7949 9.74218 74.4908 10.157L74.273 10.1858L74.008 10.3282C73.8678 10.4803 73.7732 10.656 73.7236 10.8558C73.5586 10.982 73.4333 11.1397 73.3478 11.3288L73.1076 11.4984L72.9927 11.7895L73.1702 11.7102L73.3315 11.464L73.4738 11.5211L73.2563 11.734C73.2601 11.8327 73.259 11.9276 73.2534 12.0189V12.0191L73.123 12.1954L73.0106 12.2784L72.9261 12.3758L72.8418 12.4731L73.1164 12.2045L73.0889 12.2418L71.7969 13.5052L71.9123 13.6041L71.8214 13.7738L71.2992 14.2843L71.1542 14.3302L70.6824 14.3294L70.3204 14.4209L69.9787 14.925L70.044 15.1809L69.8448 15.3756L69.7939 15.3878L69.7185 15.4993L69.6052 15.61L69.6335 15.6247L69.2811 16.1443L69.2885 16.4855L68.9468 16.9897L68.7743 16.9806L68.2617 17.7368L68.5192 17.8475L68.7064 17.6096L69.3701 16.6477L69.3712 16.6517L69.3954 16.6101L69.5991 16.43L69.8078 16.2838L69.8958 16.4703L69.8427 16.6578C69.8254 16.6866 69.8083 16.7157 69.791 16.7448L69.638 16.5743L69.4671 16.8264L69.3389 16.8552L68.7197 17.7685L68.7354 18.1166L68.846 18.4373V18.4375C68.7362 18.6456 68.6261 18.8585 68.5158 19.0756L68.4659 19.0321C68.5502 18.8478 68.6371 18.6645 68.7266 18.4821L68.2199 18.3388L68.0685 18.5805L67.6721 19.4037L67.3698 19.564L67.168 19.7905L67.2104 20.1141L67.0782 20.3883L67.0313 20.6929L66.8655 20.9367L66.9452 21.1802L67.0774 20.906L67.24 20.7462L67.1078 21.0207L67.2456 21.3856L67.2685 21.6262L67.103 21.5974L66.4422 22.9696L66.6608 22.9971L66.186 23.9835L65.9981 24.2214L65.7203 24.4049L65.324 25.2284L65.4522 25.2564L65.8219 25.2577C65.0657 27.3128 64.7916 28.4 65.0001 28.52L65.0233 28.4989C65.4527 28.0263 66.0133 27.3047 66.7048 26.334C67.6895 24.8814 68.5681 23.5964 69.3403 22.479L69.566 22.4225C69.5951 22.3779 69.6471 22.2806 69.7217 22.1307L70.508 20.9572C70.5451 20.8599 70.5784 20.7609 70.608 20.6601C70.8751 20.281 71.1238 19.9302 71.3546 19.6083L71.5785 19.5742L71.6382 19.8769L71.2989 20.3829L71.4108 20.6417L71.7822 20.6502L72.4606 19.6385L72.6826 19.4363C72.8711 19.34 73.0361 19.2221 73.1773 19.0829L73.2155 18.7817C73.2898 18.595 73.3898 18.4203 73.5159 18.2575L73.6102 17.9679L73.8171 17.7571L73.8691 17.4501L73.756 17.4973L73.5865 17.7502L73.3922 17.9014L73.562 17.6483L73.6081 17.3383L73.5463 16.9785L73.6262 16.8958L73.7611 16.9097L74.7786 15.3917C74.7356 15.3215 74.7034 15.2447 74.6813 15.1615L75.1901 14.4026L75.4076 14.194L75.4426 14.0259C75.571 13.8734 75.7432 13.7581 75.9592 13.6802L76.2566 13.2366H76.2564C76.3742 13.1259 76.4923 13.0048 76.6109 12.8736L76.6178 12.6976L76.6376 12.6685L76.6192 12.6653L76.6234 12.5562L76.9852 12.0659L77.1083 11.8056L77.308 11.5804L77.3565 11.3537L77.6025 11.0261L78.0378 10.6007L78.1367 10.7106L79.2253 9.64624L78.8809 9.59743L78.6509 9.79295L78.2377 10.1968C78.2628 10.1579 78.2881 10.1187 78.3132 10.0797L78.5869 9.71507L78.7391 9.56649L78.741 9.50994L79.2717 8.80283H79.272C79.2613 8.87085 79.241 8.93567 79.2107 8.99703C79.116 9.1288 79.023 9.26164 78.9316 9.39581L79.0641 9.43929L79.1749 9.41981L79.7382 8.65855C79.7942 8.60547 79.8595 8.56572 79.9341 8.53932C79.977 8.4665 80.0327 8.41421 80.1015 8.38273L80.1759 8.29097C80.1884 8.21868 80.2145 8.14933 80.2545 8.08264L80.7061 7.55075C80.7298 7.47659 80.7679 7.40964 80.8212 7.35042L80.7647 7.37096C80.6224 7.51793 80.5483 7.60596 80.5427 7.63477L80.4742 7.64304C80.5277 7.58302 80.5816 7.52327 80.6357 7.46432C80.6634 7.43631 80.6981 7.32241 80.7397 7.12315L80.7986 7.02099L80.7922 7.10768L80.8284 7.11221C81.0787 6.84814 81.3951 6.53337 81.7779 6.16794L81.8019 6.1194L81.6843 6.14927L81.7496 6.07778C81.9277 5.90893 82.1068 5.74168 82.2876 5.5755L82.3905 5.51655L82.3891 5.48214L82.48 5.39918L82.5746 5.32609C82.6645 5.32343 82.7391 5.29435 82.7991 5.23833L83.2565 4.82621L83.4402 4.66109C83.3423 4.62588 83.2642 4.60827 83.2061 4.60827L83.2063 4.60807ZM78.53 1.76966L78.4983 1.78006C78.2861 1.89156 78.0753 2.00386 77.8663 2.11749L77.4331 2.10202L77.3179 2.1303L76.3797 2.72381L76.2816 2.79583L76.2253 2.90706L75.7045 3.23756L75.5922 3.2765L75.4675 3.27197L75.4456 3.22182L75.5051 3.11565L75.922 2.85184L75.8215 2.75341L75.7095 2.72834L74.9858 3.1802L74.8784 3.23542L74.7534 3.23089C74.6868 3.28557 74.614 3.31784 74.5356 3.32772L74.4314 3.39387C74.4026 3.46642 74.3533 3.52644 74.2832 3.57312L73.9703 3.77078L73.8929 3.85987C73.813 3.87801 73.7453 3.91829 73.6893 3.98071L73.6125 4.0722L73.6208 4.09941C73.8012 3.99057 73.8991 3.92335 73.9137 3.89801L73.9697 3.91562L73.7613 4.04766C73.737 4.07967 73.6789 4.18903 73.5867 4.37629H73.5384L73.5624 4.2912L72.4156 5.01675C72.4881 5.01808 72.5193 5.03168 72.5097 5.05756L71.8841 5.45314L71.7716 5.49369L71.7604 5.53157L71.6562 5.59745L71.5432 5.6356L71.4152 5.6364L70.6854 6.09813L70.8288 6.17362L70.8574 6.17869V6.17896C70.6801 6.24485 70.5106 6.31713 70.3485 6.39582L69.3129 8.18972C69.0399 8.44367 68.7723 8.70081 68.5095 8.96088L68.5071 8.95368L68.4927 8.97742C68.1206 9.34633 67.7586 9.72161 67.4062 10.1033L67.3238 10.0641L67.1284 10.333L65.3758 11.0079L64.5412 12.4536L64.53 13.2917L64.1851 13.363L63.1418 15.1702C63.0927 15.3507 63.0543 15.5241 63.0269 15.6901C62.8429 15.8082 62.5545 15.9888 62.1619 16.2313L61.9806 16.4698L61.5426 17.6066L61.5173 17.9032L61.565 18.0377L60.7712 19.4125L60.9815 19.3613L60.6342 20.2631L60.7278 20.5699L60.1805 21.9913C60.1131 22.0066 60.0448 22.0463 59.9758 22.1111L59.319 23.8167L59.4523 23.8354L59.7028 23.6457L60.1405 22.5086L60.1272 22.2037L60.3333 22.0352L60.7712 20.898L60.8509 20.6908L60.9887 20.4891L61.1415 20.3768L61.251 20.0927L61.3171 20.2784L61.3558 20.5843L61.2462 20.8684L61.1444 20.9183L61.0516 20.6721L60.7232 21.5249L60.6166 21.5515L59.8145 23.6348L59.7897 23.9555L59.9462 24.247L60.0102 24.5669C60.0648 24.4241 60.1379 24.2345 60.229 23.9982L60.3093 23.8013H60.3095C60.2157 24.0928 60.1235 24.3863 60.0331 24.6821L60.0102 24.5671C59.9555 24.7095 59.919 24.8056 59.9006 24.8552L59.9593 24.9261H59.959C59.5954 26.1332 59.2606 27.3741 58.9543 28.6486L61.2038 25.2217L65.5557 18.1731L65.646 18.044L65.7159 18.1014L66.129 18.0059L67.1724 16.1987L67.5941 16.0239L68.0976 15.3797L68.0645 14.9481L68.482 14.2253L68.5934 13.8366L68.6275 13.7875L68.8458 13.5165C68.8482 13.4994 68.8504 13.4826 68.8525 13.4664L69.7103 12.242L70.845 11.155L71.1654 11.1027C71.3318 11.0171 71.4906 10.8981 71.642 10.7463L71.7036 10.442C72.4124 9.74873 72.7928 9.29414 72.8451 9.07809H72.8448L72.6627 9.16398L72.249 9.55983L72.2922 9.42379L72.5081 9.20906C72.5516 9.01674 72.5828 8.81588 72.602 8.60702C72.6393 8.56407 72.6771 8.52059 72.7152 8.47685L72.7278 8.46298L72.7808 8.59075L74.5084 6.87292L74.2674 6.86599L74.3935 6.69207L75.2574 5.83315L75.485 5.68404L75.5576 5.53467L75.8119 5.37755L76.1269 5.30179L77.2065 4.22812L76.7693 4.0718L77.8814 2.86347C78.1181 2.58472 78.3162 2.33051 78.4756 2.10111C78.5329 2.02242 78.551 1.91199 78.53 1.76981L78.53 1.76966ZM64.4945 29.5576L64.5267 29.6347L64.5579 29.5611L64.4945 29.5576ZM88.9864 13.6816L87.842 14.2023C86.8707 15.0295 86.0942 15.7062 85.5133 16.2328L85.3211 16.5059L84.3983 17.3701C84.3258 17.3771 84.2581 17.3984 84.1949 17.4344C84.0694 17.5441 83.9241 17.6772 83.7588 17.8335L83.6783 17.8807L83.9318 17.5222L84.811 16.6697C84.7776 16.6644 84.7449 16.6617 84.7131 16.6617C84.6209 16.6617 84.5356 16.6838 84.4572 16.7284C84.0792 17.0589 83.5213 17.6009 82.7835 18.3547L82.5058 18.5353L82.0678 18.9421L80.4791 20.9144L80.2224 21.3599L80.6876 20.7826L80.7281 20.6925C80.7598 20.641 80.8379 20.5759 80.9627 20.4972L80.4983 21.079L80.2843 21.537L80.2171 21.6205L80.1385 21.7565L80.1808 21.6402L80.1275 21.7C79.6714 22.2913 79.2284 22.891 78.7982 23.4989L78.1825 24.3877L78.4304 24.1677L78.3701 24.2578L77.1802 25.9735C77.1412 26.0282 77.1252 26.0554 77.1322 26.0554C77.1375 26.0554 77.1572 26.0381 77.1916 26.0037L76.9192 26.4134L76.5983 26.7327L75.858 27.873L75.456 28.4953C75.5592 28.4655 75.6482 28.4276 75.7236 28.3817L75.5957 28.5791L75.1937 29.2011C75.3041 29.1694 75.3984 29.1283 75.4768 29.0782H75.4771L75.254 29.4233C75.3249 29.4028 75.3891 29.3785 75.4467 29.3505H75.447L75.3635 29.4708C75.3246 29.5255 75.3086 29.5527 75.3153 29.5527C75.3206 29.5527 75.3406 29.5354 75.3747 29.5007L75.375 29.501L75.1026 29.9107L74.7813 30.2297L74.0411 31.37L73.6391 31.9924C73.7999 31.9462 73.9267 31.8803 74.0198 31.7947C74.0757 31.7766 74.2125 31.5928 74.4297 31.2436L75.0735 30.6394C75.3901 30.1539 75.686 29.705 75.9614 29.2921L75.7564 29.608L75.3545 30.2305C75.5149 30.1841 75.6418 30.1182 75.7351 30.0326C75.7911 30.0145 75.9278 29.831 76.1451 29.4818C76.3591 29.2801 76.5737 29.0787 76.7885 28.8776C77.4176 27.9133 77.9649 27.0925 78.4308 26.415L78.5025 26.2211L78.736 26.0341H78.7363C78.7248 26.0835 78.7232 26.1243 78.7315 26.1566C78.7984 26.0608 78.8616 25.9706 78.9205 25.8866L79.3864 25.5134C79.7524 25.0613 80.0699 24.6778 80.3388 24.3622H80.3386L81.1018 23.7514C81.6082 23.1258 82.0216 22.631 82.3426 22.2672L82.4855 22.0031H82.4853C82.5735 21.9159 82.6633 21.8279 82.7542 21.739V21.7393L82.7569 21.7374C82.7582 21.7358 82.7598 21.7342 82.7614 21.7324H82.7611C82.783 21.7113 82.8049 21.69 82.8267 21.6689L82.8406 21.646C83.1306 21.3301 83.443 21.0028 83.7778 20.6638H83.7775C83.9926 20.4661 84.2091 20.2698 84.4274 20.0751L84.5047 20.0092H84.505C84.4125 20.1356 84.3712 20.1988 84.381 20.1988C84.3863 20.1988 84.4077 20.1794 84.4447 20.1399L86.3376 18.4813L85.9494 18.6648C85.5136 19.038 85.0815 19.4144 84.6526 19.7939L84.5287 19.9745L84.4324 20.0132C84.4687 19.9777 84.5052 19.9422 84.542 19.9067L84.6294 19.763H84.6292C84.9986 19.437 85.4363 19.055 85.9422 18.6176C85.9182 18.6176 85.971 18.5285 86.1008 18.3503C86.1147 18.338 86.1285 18.3255 86.1427 18.313L86.22 18.2471C86.1277 18.3735 86.0864 18.437 86.096 18.437C86.1014 18.437 86.1227 18.4173 86.1597 18.378L88.0526 16.7192L87.6647 16.9029C87.2289 17.2761 86.7965 17.6525 86.3676 18.0318L86.2437 18.2124L86.1858 18.2356C86.249 18.1516 86.3242 18.0537 86.4113 17.9419C86.4159 17.9379 86.4204 17.9339 86.4249 17.9299H86.4247L86.6939 17.7013L86.7451 17.649H86.7448C87.0194 17.4089 87.3235 17.1443 87.6575 16.8554C87.6191 16.8554 87.7759 16.6295 88.128 16.1782H88.1277L87.2841 16.8946C87.2193 16.9248 87.1545 16.9552 87.0897 16.9853L86.9986 17.0283L87.1628 16.8842H87.1625C87.5122 16.5825 87.9294 16.2264 88.4138 15.8159C88.3077 15.9493 88.2122 16.0701 88.1283 16.1779L88.4092 15.9394L88.5063 15.8396L88.555 15.7481L88.5273 15.7196L88.8848 15.4168L88.1165 15.7663C88.1896 15.6561 88.3279 15.4707 88.5313 15.2098H88.531L87.6874 15.9263C87.6525 15.9426 87.6173 15.9591 87.5824 15.9754C87.588 15.9661 87.5946 15.9557 87.6018 15.9445H87.6015L87.8918 15.69L87.7506 15.7569C88.0598 15.4913 88.4154 15.1882 88.8171 14.8473L88.8173 14.8476C88.711 14.981 88.6158 15.1016 88.5319 15.2093L88.8125 14.9711L88.9098 14.8714L88.9586 14.7799L88.9309 14.7513L89.2884 14.4483L88.6108 14.7567L88.7843 14.6097L88.3466 14.8089L88.3943 14.7191L88.3669 14.6905L88.724 14.3878L88.0286 14.7041C88.0865 14.6278 88.1534 14.5406 88.2296 14.443H88.2293L87.7986 14.8089L87.5797 14.9084C87.4374 15.0298 87.299 15.1477 87.165 15.2627H87.1647L87.0946 15.2955C87.4766 14.965 87.95 14.5598 88.5153 14.0807C88.4093 14.2141 88.3138 14.3347 88.2299 14.4424L88.5105 14.2042L88.6078 14.1045L88.6566 14.013L88.6289 13.9844L88.9864 13.6816ZM69.5299 31.678L69.3659 31.9175L69.3206 32.0399L69.3531 32.097L69.4368 31.9746L69.5299 31.678ZM64.479 29.4317C64.4076 29.4317 64.3162 29.4445 64.204 29.4703L64.0923 29.5448L63.8894 29.9948L63.9089 30.1295L63.8076 30.3546L63.6932 30.4274L63.5823 30.3485C63.6146 30.273 63.6476 30.1978 63.6818 30.1228L63.4533 30.0897L63.3014 30.4253C63.2329 30.4786 63.166 30.5331 63.1009 30.588C63.1076 30.6723 63.0975 30.7537 63.0705 30.8318C63.0321 30.9076 63.0028 30.9817 62.9828 31.0543L62.9818 31.1826C63.0292 31.1186 63.0777 31.0585 63.1273 31.002H63.1276L63.0769 31.1143L63.1398 31.2626L63.1433 31.3378L63.0772 31.3562L62.8743 31.8065C62.8845 31.8508 62.8959 31.8937 62.909 31.9356L62.8077 32.1607L62.7453 32.2522L62.7219 32.34L62.592 32.4064L62.4398 32.7438L62.5502 32.7636L62.724 32.7353L62.8173 32.6489L62.9855 32.6073L63.0599 32.5091L63.2121 32.1717L63.2393 32.0519L63.1841 31.9079L63.2347 31.7953L63.2089 31.6598L63.513 30.9847L63.5399 30.9489L63.2864 31.5115L63.2587 31.6286L63.3565 31.7841L63.3059 31.8967L63.3544 32.0396C63.4021 31.994 63.4408 31.9289 63.4698 31.8441L63.5719 31.783L63.6519 31.7857L63.794 31.7283C63.9147 31.7057 64.0184 31.6729 64.105 31.6296L64.2063 31.4045L64.2357 31.2858L64.1895 31.1642L64.2954 31.1018L64.4476 30.7643L64.4201 30.6302L64.5723 30.2925L64.636 30.297L64.788 29.9593L64.8112 29.8641L64.6728 29.9222L64.5715 30.1471L64.5473 30.2533L64.4764 30.3493C64.4596 30.3936 64.4428 30.4309 64.4255 30.4621L64.4295 30.4533L64.4084 30.4101L64.4055 30.4168L64.373 30.5355C64.3908 30.5176 64.4081 30.4933 64.4252 30.4624V30.4626L64.3788 30.5659L64.2908 30.6067L64.2397 30.7182L64.1824 30.6238L64.2135 30.5053L64.2855 30.5845L64.3372 30.48L64.3879 30.3674L64.4084 30.4101L64.6563 29.8505L64.5523 29.6958L64.5265 29.6347L64.5089 29.6768L64.4583 29.7894L64.3295 29.8531L64.4636 29.556L64.4942 29.5576L64.4889 29.5453L64.5188 29.4333C64.5062 29.4322 64.4929 29.4317 64.479 29.4317L64.479 29.4317ZM66.6798 32.6678L66.551 32.8831L66.5564 32.9458L66.6702 32.7556L66.6798 32.6678ZM89.7605 6.97148C88.1499 7.82001 86.7017 8.64984 85.4163 9.46156L86.5991 7.96622C86.4834 7.93581 86.3682 7.92087 86.2533 7.92087C86.1555 7.92087 86.058 7.93181 85.9607 7.95368L85.7146 8.08118C85.5979 8.23483 85.4643 8.37781 85.3142 8.51038L84.4789 8.86035L84.2597 9.05801L82.3703 11.4467C82.3642 11.4974 82.3583 11.548 82.3525 11.5987H82.3522C82.2146 11.7065 82.08 11.814 81.9486 11.9212L81.9627 11.7278L81.8236 11.7382L81.1849 12.5457H81.1846C81.0364 12.6678 80.8898 12.7903 80.7443 12.9127H80.744L80.6566 12.9615L80.5665 12.8402C80.5636 12.8394 80.5606 12.8388 80.5574 12.8388C80.5092 12.8388 80.4092 12.9354 80.2578 13.1282L78.8653 13.7111L78.6052 13.853L77.4718 15.2862L77.3038 15.5332C77.2956 15.7381 77.2615 15.9331 77.2017 16.1179L77.0503 16.0814L76.8136 16.29L75.1218 18.4621L75.122 18.5136H75.1218C74.6681 19.0612 74.2384 19.6126 73.8326 20.1672C73.782 20.2434 73.7311 20.3203 73.6802 20.3979C73.6735 20.3856 73.6682 20.3704 73.6639 20.3525L71.9635 22.5022C72.0635 22.4987 72.2197 22.4545 72.4329 22.3696C72.3812 22.4545 72.3295 22.5398 72.2775 22.6255L72.2346 22.6625L71.5026 23.6362L71.2755 23.8301C71.0785 23.9093 70.9068 24.0152 70.7605 24.1475L70.6107 24.4089L70.5638 24.7061L70.1978 25.1932L70.064 25.4412L69.8718 25.6744L69.8046 25.9763L69.9299 25.9219C70.0522 25.7442 70.1741 25.5973 70.2953 25.4807C70.2828 25.5695 70.2055 25.7114 70.0637 25.9067C70.0794 26.0905 70.0882 26.2711 70.0906 26.4485C70.0757 26.4759 70.0608 26.5034 70.0458 26.5312L69.9944 26.4607L69.8401 26.5794L68.559 28.2837L68.8154 28.2591L68.676 28.476L67.6777 29.7913L67.3331 29.8687L66.4183 31.0858L66.9466 31.1939L67.2163 31.0749L67.4243 30.858L67.5629 30.8274L67.255 31.3419C67.2342 31.419 67.2323 31.502 67.2497 31.5908L67.1716 31.5956L67.0929 31.6967L66.7128 32.3321L66.659 32.4481L66.6664 32.5652L66.3495 33.0947L66.297 33.1539L66.2674 33.1155L65.8238 33.8566C65.831 33.8608 65.8401 33.863 65.8502 33.863C65.8846 33.863 65.935 33.84 66.0014 33.7939L66.6795 32.6682L66.7411 32.5658L66.8112 32.5367L66.8749 32.4671L66.9381 32.3612L66.9527 32.4746L66.9293 32.5927L66.8658 32.6986L66.824 32.7125L66.8149 32.5847L66.5614 33.0083L66.5561 32.9462L66.0363 33.8147L66.0205 33.9444L66.0501 34.0665L66.0485 34.2026L66.1975 33.9534L66.2679 33.8545L66.3911 33.8078L66.0584 34.3637L66.0384 34.3728C66.0427 34.3565 66.0456 34.3399 66.0472 34.3237L66.0485 34.2026L66.0075 34.2711L65.9822 34.3986L66.0384 34.3728C66.0248 34.4266 65.9974 34.4805 65.9558 34.5349L66.0099 34.5445L66.2261 34.4624C65.8766 35.3763 65.766 35.8887 65.8945 35.9999L65.9329 35.9695C66.66 35.28 67.6575 34.1087 68.9247 32.4551L69.5456 31.6274L69.5296 31.6784L69.7644 31.3354L70.0163 30.9995L70.1829 30.8856L69.4365 31.975L69.1577 32.3823L69.8875 31.8835L69.9696 31.804L71.1553 30.0733C71.1937 30.0424 71.2374 29.9357 71.2856 29.7535L71.9134 28.8375C71.9006 28.8087 72.0157 28.7185 72.2588 28.5662L72.136 28.8834L71.658 29.5975C71.6716 29.6049 71.6892 29.6087 71.7105 29.6087C71.7649 29.6087 71.8441 29.5841 71.948 29.5351L72.9178 28.1367C72.9778 28.0935 73.0383 28.0514 73.0996 28.0103L73.3979 27.6411C73.5101 27.5043 73.5746 27.3674 73.5917 27.2303L74.3327 26.1281C74.3239 26.0886 74.3751 25.9835 74.4859 25.8128L74.4153 25.8675L74.1373 26.2738L74.0984 26.3717L74.008 26.4394L73.9968 26.4231L74.2663 26.0142L74.4257 25.4709L74.4921 25.3764L74.4414 25.5922L74.5038 25.5069L75.8289 23.5724L75.6663 23.6885L75.6649 23.6621L75.9819 23.1993L77.2459 22.439L77.4642 22.2582C77.9272 21.6049 78.3972 20.9621 78.8743 20.3293L79.1057 19.5254C79.1065 19.535 79.1139 19.5398 79.1283 19.5398C79.172 19.5398 79.2797 19.4942 79.4511 19.403C79.9963 18.698 80.6904 17.8606 81.5338 16.891C81.6898 16.7091 81.7532 16.5381 81.7239 16.3781C82.184 15.8574 82.7939 15.2015 83.5533 14.4103H83.5568C83.604 14.4103 83.6138 14.4701 83.5858 14.5898C84.2051 13.9443 84.9829 13.1655 85.9196 12.2529L85.9771 12.1382H85.9769C85.7956 12.1926 85.6154 12.2499 85.436 12.3102L83.9422 13.7981C83.7862 13.9344 83.6911 14.099 83.6572 14.2916L83.4211 14.3191L82.5643 15.2071L82.4705 15.3226C81.9971 15.8358 81.6625 16.2047 81.4663 16.4293L81.3584 16.3509L81.1846 16.5093L80.9876 16.7345L80.7919 16.9604L80.8386 16.7683H80.8383C81.0526 16.5075 81.2656 16.2517 81.4773 16.0009V16.0012L81.4311 16.197C81.8294 15.7499 82.2343 15.3079 82.6459 14.871L82.6587 14.9886C83.2422 14.3639 84.1528 13.4391 85.3904 12.2145C85.5109 12.0347 85.5636 11.8746 85.549 11.7346L85.9584 11.3211L85.9915 11.1976C85.9832 11.192 86.0962 11.0733 86.3305 10.8415L86.446 10.7981L86.5558 10.8013L86.5363 10.9317L86.2759 11.1945L86.3959 11.2902L86.5075 11.2774L86.9418 10.8391L87.0428 10.7735C87.126 10.7538 87.2003 10.7212 87.2662 10.6764L87.3528 10.5887L87.3744 10.4641C87.4693 10.3777 87.606 10.2304 87.7844 10.0221L87.8342 9.9098L87.774 9.93193C87.7111 9.99115 87.6583 10.0488 87.6154 10.1043L87.5959 10.0672L87.6828 9.97941C87.7177 9.90579 87.7367 9.82123 87.7396 9.72627L87.7868 9.6121L87.7865 9.73294L88.4812 9.03163L88.5108 8.97108L88.4295 8.96334L88.9826 8.40478C89.0554 8.3685 89.1319 8.33649 89.2124 8.30902L89.6463 7.87075C89.6562 7.86435 89.5855 7.84248 89.4344 7.80513L89.32 7.83688L89.2337 7.92383C89.146 7.93797 89.057 7.95051 88.9666 7.96144L88.8512 8.00706L88.2434 8.62084C88.2314 8.70833 88.2122 8.79102 88.1858 8.86944C88.1269 8.92733 88.0699 8.98654 88.015 9.04657L87.9936 9.17594L87.0386 10.1402L87.0601 10.1045L87.8417 9.31542L87.8817 9.20312L87.859 9.04788L88.0326 8.87262L88.0925 8.76886L89.7607 6.97155L89.7605 6.97148Z" fill="#FF288F"/>
<path d="M0 10.7218V27.1565H5.16046V10.7218H0ZM3.33084 14.8305H6.45057C7.09172 14.8305 7.57649 14.9635 7.90488 15.2296C8.23327 15.4957 8.39747 15.8713 8.39747 16.3565C8.39747 16.8418 8.23327 17.2174 7.90488 17.4835C7.57649 17.7496 7.09172 17.8826 6.45057 17.8826H3.33084V21.9913H6.45057C8.06126 21.9913 9.36701 21.7644 10.3678 21.3104C11.3843 20.8565 12.1271 20.207 12.5962 19.3617C13.081 18.5165 13.3234 17.5148 13.3234 16.3565C13.3234 15.1826 13.081 14.1809 12.5962 13.3513C12.1271 12.5061 11.3843 11.8565 10.3678 11.4026C9.36701 10.9487 8.06126 10.7218 6.45057 10.7218H3.33084V14.8305Z" fill="#FF288F"/>
<path d="M15.6683 10.7218V27.1565H20.946V10.7218H15.6683Z" fill="#FF288F"/>
<path d="M34.9082 10.7218V18.1644L24.2354 9.90002V27.1565H29.1613V19.7139L39.8341 27.9783V10.7218H34.9082Z" fill="#FF288F"/>
<path d="M43.1107 10.7218V27.1565H48.5057V10.7218H43.1107ZM53.5489 10.7218L47.0279 18.587L53.6662 27.1565H59.9056L53.1501 18.4226L59.5538 10.7218H53.5489Z" fill="#FF288F"/>
<path d="M87.9238 15.3H92.6151V27.1565H97.7756V15.3H102.467V10.7218H87.9238V15.3Z" fill="#FF288F"/>
<path d="M104.112 10.7218V27.1565H109.389V10.7218H104.112Z" fill="#FF288F"/>
<path d="M121.123 21.5217H124.829C124.689 21.8191 124.517 22.093 124.313 22.3435C124.11 22.5939 123.868 22.8052 123.586 22.9774C123.32 23.1496 123 23.2826 122.624 23.3765C122.249 23.4704 121.827 23.5174 121.358 23.5174C120.513 23.5174 119.771 23.3374 119.129 22.9774C118.504 22.6174 118.011 22.093 117.652 21.4044C117.308 20.7157 117.136 19.8939 117.136 18.9391C117.136 17.9687 117.323 17.1626 117.699 16.5209C118.089 15.8791 118.606 15.4018 119.247 15.0887C119.888 14.76 120.591 14.5957 121.358 14.5957C122.14 14.5957 122.757 14.7913 123.211 15.1826C123.664 15.5739 124.032 16.0278 124.313 16.5444L129.122 14.3844C128.575 13.6174 127.933 12.9287 127.198 12.3183C126.479 11.6922 125.635 11.1913 124.665 10.8157C123.711 10.44 122.609 10.2522 121.358 10.2522C119.982 10.2522 118.707 10.4557 117.534 10.8626C116.377 11.2539 115.361 11.8252 114.485 12.5765C113.625 13.3278 112.952 14.2435 112.468 15.3235C111.983 16.3878 111.741 17.5931 111.741 18.9391C111.741 20.2852 111.967 21.5061 112.421 22.6017C112.89 23.6974 113.539 24.6365 114.368 25.4191C115.212 26.2017 116.205 26.8043 117.347 27.227C118.488 27.6496 119.747 27.8609 121.123 27.8609C122.609 27.8609 123.922 27.6026 125.064 27.0861C126.205 26.5696 127.152 25.8496 127.902 24.9261C128.653 24.0026 129.192 22.9304 129.521 21.7096C129.865 20.4887 129.974 19.1739 129.849 17.7652H121.123V21.5217Z" fill="#FF288F"/>
<path d="M135.898 27.1565H144.178V23.0478H135.898V27.1565ZM135.898 14.8305H144.178V10.7218H135.898V14.8305ZM135.898 20.7H143.709V16.7087H135.898V20.7ZM132.333 10.7218V27.1565H137.259V10.7218H132.333Z" fill="#FF288F"/>
<path d="M152.031 20.1131L156.019 27.1565H162L157.309 20.1131H152.031ZM147.222 10.7218V27.1565H152.383V10.7218H147.222ZM150.553 15.0652H153.673C154.111 15.0652 154.47 15.1278 154.752 15.2531C155.033 15.3626 155.244 15.5348 155.385 15.7696C155.542 15.9887 155.62 16.2626 155.62 16.5913C155.62 16.9044 155.542 17.1783 155.385 17.4131C155.244 17.6478 155.033 17.8278 154.752 17.9531C154.47 18.0626 154.111 18.1174 153.673 18.1174H150.553V21.9913H154.142C155.753 21.9913 157.058 21.7487 158.059 21.2635C159.076 20.7783 159.819 20.1131 160.288 19.2678C160.772 18.407 161.015 17.4365 161.015 16.3565C161.015 15.2609 160.772 14.2905 160.288 13.4452C159.819 12.6 159.076 11.9348 158.059 11.4496C157.058 10.9644 155.753 10.7218 154.142 10.7218H150.553V15.0652Z" fill="#FF288F"/>
</svg>
