<svg xmlns="http://www.w3.org/2000/svg" viewBox="0 0 308 64.84"><title>OnlyFans logo - Brandlogos.net</title><rect width="64.84" height="64.84" style="fill:none"/><path d="M252.29,363.74A20.26,20.26,0,1,0,272.55,384,20.26,20.26,0,0,0,252.29,363.74Zm0,26.34a6.08,6.08,0,1,1,6.08-6.08,6.08,6.08,0,0,1-6.08,6.08Z" transform="translate(-230 -351.58)" style="fill:#00aeef"/><path d="M275.07,378.93c5.15,1.48,11.23,0,11.23,0-1.76,7.7-7.36,12.52-15.42,13.11a20.22,20.22,0,0,1-18.58,12.22l6.08-19.32c6.25-19.86,9.45-21.2,24.27-21.2h10.18C291.11,371.23,285.25,377,275.07,378.93Z" transform="translate(-230 -351.58)" style="fill:#008ccf"/><rect x="81.05" width="226.95" height="64.84" style="fill:none"/><path d="M330.29,364.22c-11.32,0-17,8.35-17,19.75s5.56,19.8,17,19.8,17-8.27,17-19.8S341.85,364.22,330.29,364.22Zm0,33c-6.48,0-7.62-6.78-7.62-13.27s1.07-13.22,7.62-13.22S338,377.38,338,384s-1.06,13.27-7.67,13.27ZM369,373a11,11,0,0,0-8.81,4.35l-.21-1.17a2.72,2.72,0,0,0-2.68-2.25h-5.22v27.52a1.36,1.36,0,0,0,1.36,1.36h7.24V383.94a2.64,2.64,0,0,1,.47-1.53q2.18-3.06,4.54-3.06c2.25,0,2.72,1.63,2.72,3.86v18.27a1.36,1.36,0,0,0,1.36,1.36H377v-21.1C377,376,373.83,373,369,373Zm24.18,23.88a3,3,0,0,1-.46,0q-1.47,0-1.47-1.79V361.56l-7.38.8a1.36,1.36,0,0,0-1.21,1.35v31.8c0,5.46,3.08,8.27,7.94,8.27a13.39,13.39,0,0,0,5.22-1l-1.41-5.09a1.09,1.09,0,0,0-1.23-.8Zm22.44-23a1.36,1.36,0,0,0-1.32,1l-5.41,22.35L403.94,375a1.36,1.36,0,0,0-1.33-1.07h-8l8.24,27a2.72,2.72,0,0,0,2.59,1.93h.92c-1.76,4.24-4.41,5.39-9.3,6l.73,4.79a1.35,1.35,0,0,0,1.46,1.15c7.62-.76,12.66-4.4,15-11.92L423.4,374Z" transform="translate(-230 -351.58)" style="fill:#00aeef"/><path d="M427,366.51v36.33h7.56a1.36,1.36,0,0,0,1.36-1.36h0V387.89h8.27a2,2,0,0,0,2-1.82l.49-4.54H436v-10h10.86a2,2,0,0,0,2-1.75l.66-4.62h-21.1A1.36,1.36,0,0,0,427,366.51ZM477,393.16V374h-5.22a2.72,2.72,0,0,0-2.67,2.19l-.05.26c-1.81-2.25-3.51-3.37-6.45-3.37-7.92,0-12,7.09-12,15.28s3,15.45,11.15,15.45c3.51,0,5.86-1.81,7.76-4.4a7.38,7.38,0,0,0,3.44,3.21,3.81,3.81,0,0,0,5.09-1.79l.1-.22,1.21-3C477.37,396.6,477,395.38,477,393.16Zm-9.1,1.91c-1.1,1.59-2.06,2.39-3.76,2.39-4.14,0-4.62-4.93-4.62-9.08s.86-9.08,5-9.08a3.84,3.84,0,0,1,3.16,1.58,2.71,2.71,0,0,1,.74,1.86V393.5A2.79,2.79,0,0,1,467.87,395.07Zm27.62-20.95a13.07,13.07,0,0,0-4,3.26l-.2-1.18a2.72,2.72,0,0,0-2.68-2.25h-5.22v27.52a1.36,1.36,0,0,0,1.36,1.36H492V383.94a2.64,2.64,0,0,1,.47-1.53q2.18-3.06,4.54-3.06c2.25,0,2.72,1.63,2.72,3.86v18.27a1.36,1.36,0,0,0,1.36,1.36h7.23v-21.1C508.3,373,500.66,371.52,495.49,374.13Zm28,9.63c-1.21-.52-2-1-2.06-2.23a2.22,2.22,0,0,1,2-2.24,12.39,12.39,0,0,1,7.61,1.53,1.34,1.34,0,0,0,1.74-.48l2.45-3.76A16.69,16.69,0,0,0,524.55,373c-6.05,0-11.8,3-11.8,8.81,0,7.94,8.88,8.81,12.51,10.31,1.42.59,2.08,1.17,2.12,2.61a2.69,2.69,0,0,1-2.24,2.69,11.74,11.74,0,0,1-8.7-2,1.34,1.34,0,0,0-1.73.25l-3.37,3.77a17.82,17.82,0,0,0,12.08,4.31c6.52,0,12.84-3.06,12.84-9.52,0-8-7.67-8.28-12.79-10.51Z" transform="translate(-230 -351.58)" style="fill:#008ccf"/></svg>